<svg fill="none" viewBox="0 0 240 240" xmlns="http://www.w3.org/2000/svg">
  <defs>
    <linearGradient id="fitmate-icon-shell" x1="38" x2="202" y1="18" y2="222">
      <stop stop-color="#FFFFFF" />
      <stop offset="1" stop-color="#F2F6FF" />
    </linearGradient>
    <linearGradient id="fitmate-icon-field" x1="58" x2="184" y1="52" y2="190">
      <stop stop-color="#F7FAFF" />
      <stop offset="1" stop-color="#E6ECFF" />
    </linearGradient>
    <linearGradient id="fitmate-icon-primary" x1="70" x2="170" y1="92" y2="148">
      <stop stop-color="#2459E6" />
      <stop offset="1" stop-color="#163FAF" />
    </linearGradient>
    <linearGradient id="fitmate-icon-plate" x1="30" x2="210" y1="78" y2="162">
      <stop stop-color="#3F6FED" />
      <stop offset="0.5" stop-color="#2459E6" />
      <stop offset="1" stop-color="#163FAF" />
    </linearGradient>
    <linearGradient id="fitmate-icon-grip" x1="99" x2="141" y1="96" y2="144">
      <stop stop-color="#FFFFFF" />
      <stop offset="1" stop-color="#E6ECFF" />
    </linearGradient>
    <filter color-interpolation-filters="sRGB" filterUnits="userSpaceOnUse" height="188" id="fitmate-icon-shadow" width="188" x="26" y="26">
      <feDropShadow dx="0" dy="10" flood-color="#163FAF" flood-opacity="0.18" stdDeviation="8" />
    </filter>
  </defs>
  <rect fill="url(#fitmate-icon-shell)" height="214" rx="58" width="214" x="13" y="13" />
  <rect height="211" rx="56.5" stroke="#C9D8F4" stroke-width="2.5" width="211" x="14.5" y="14.5" />
  <rect fill="url(#fitmate-icon-field)" height="156" rx="44" width="156" x="42" y="42" />
  <rect height="152" rx="42" stroke="#FFFFFF" stroke-opacity="0.86" stroke-width="4" width="152" x="44" y="44" />
  <g filter="url(#fitmate-icon-shadow)" transform="rotate(46 120 120)">
    <rect fill="url(#fitmate-icon-primary)" height="30" rx="15" width="108" x="66" y="105" />
    <rect fill="#163FAF" height="56" rx="15" width="18" x="74" y="92" />
    <rect fill="#163FAF" height="56" rx="15" width="18" x="148" y="92" />
    <rect fill="url(#fitmate-icon-plate)" height="78" rx="18" width="28" x="36" y="81" />
    <rect fill="url(#fitmate-icon-plate)" height="66" rx="16" width="24" x="58" y="87" />
    <rect fill="url(#fitmate-icon-plate)" height="66" rx="16" width="24" x="158" y="87" />
    <rect fill="url(#fitmate-icon-plate)" height="78" rx="18" width="28" x="176" y="81" />
    <rect fill="url(#fitmate-icon-grip)" height="46" rx="15" stroke="#B4C5FF" stroke-width="3" width="42" x="99" y="97" />
    <path d="M109 107V133M120 104V136M131 107V133" stroke="#2459E6" stroke-linecap="round" stroke-opacity="0.48" stroke-width="4" />
    <path d="M42 94H58M182 94H198" stroke="#FFFFFF" stroke-linecap="round" stroke-opacity="0.44" stroke-width="5" />
    <path d="M42 146H58M182 146H198" stroke="#00174B" stroke-linecap="round" stroke-opacity="0.14" stroke-width="5" />
  </g>
</svg>
